<svg width="13" height="25" viewBox="0 0 13 25" fill="none" xmlns="http://www.w3.org/2000/svg">
<path d="M7.24059 1.72745C7.24059 1.2498 6.85338 0.862592 6.37573 0.862592C5.89809 0.862592 5.51088 1.2498 5.51088 1.72745H7.24059ZM5.76419 23.9604C6.10193 24.2981 6.64953 24.2981 6.98728 23.9604L12.4912 18.4565C12.8289 18.1187 12.8289 17.5711 12.4912 17.2334C12.1534 16.8956 11.6058 16.8956 11.2681 17.2334L6.37573 22.1258L1.48337 17.2334C1.14562 16.8956 0.598024 16.8956 0.260277 17.2334C-0.0774703 17.5711 -0.0774703 18.1187 0.260277 18.4565L5.76419 23.9604ZM5.51088 1.72745L5.51088 23.3488H7.24059L7.24059 1.72745H5.51088Z" fill="white"/>
</svg>
