<svg width="428" height="182" viewBox="0 0 428 182" fill="none" xmlns="http://www.w3.org/2000/svg">
<path d="M1313.84 144.671C1314.55 158.541 1305.18 172.713 1286.39 186.995C1267.63 201.261 1239.57 215.545 1203.18 229.653C1130.41 257.865 1024.39 285.327 892.919 310.538C629.98 360.959 265.288 402.366 -138.83 422.802C-542.948 443.239 -909.956 438.835 -1176.64 415.197C-1309.99 403.378 -1418.23 386.752 -1493.48 366.025C-1531.11 355.661 -1560.46 344.28 -1580.57 331.979C-1600.7 319.666 -1611.45 306.511 -1612.15 292.641C-1612.85 278.77 -1603.49 264.599 -1584.7 250.317C-1565.93 236.051 -1537.88 221.766 -1501.49 207.659C-1428.71 179.446 -1322.7 151.985 -1191.23 126.774C-928.287 76.3526 -563.595 34.9462 -159.477 14.5097C244.64 -5.92687 611.649 -1.52317 878.333 22.1146C1011.68 33.9338 1119.92 50.5601 1195.17 71.2866C1232.8 81.6508 1262.15 93.0323 1282.26 105.333C1302.4 117.646 1313.14 130.801 1313.84 144.671Z" stroke="#01124F"/>
</svg>
