<?xml version="1.0" encoding="UTF-8"?>
<!DOCTYPE svg PUBLIC "-//W3C//DTD SVG 1.1//EN" "http://www.w3.org/Graphics/SVG/1.1/DTD/svg11.dtd">
<svg width="1575pt" height="581pt" viewBox="0 0 1575 581" fill="#08003d" version="1.1" xmlns="http://www.w3.org/2000/svg">
  <g id="#08003dff">
    <path d=" M 888.90 9.62 C 922.20 6.69 955.49 3.66 988.78 0.73 C 988.80 8.77 988.79 16.81 988.79 24.85 C 965.38 26.96 941.97 29.03 918.57 31.13 C 918.54 35.15 918.54 39.17 918.57 43.18 C 940.17 41.30 961.77 39.31 983.38 37.43 C 983.40 45.46 983.37 53.49 983.40 61.51 C 961.79 63.53 940.18 65.39 918.57 67.34 C 918.54 71.36 918.54 75.38 918.56 79.40 C 941.97 77.35 965.37 75.22 988.78 73.15 C 988.80 81.19 988.80 89.24 988.78 97.29 C 955.47 100.25 922.16 103.25 888.85 106.20 C 888.86 74.01 888.76 41.81 888.90 9.62 Z" />
    <path d=" M 828.51 15.04 C 838.41 14.14 848.31 13.25 858.21 12.39 C 858.24 44.57 858.23 76.75 858.22 108.93 C 848.32 109.85 838.42 110.73 828.52 111.59 C 828.48 99.52 828.52 87.46 828.50 75.40 C 810.49 76.99 792.48 78.60 774.48 80.22 C 774.48 92.29 774.49 104.35 774.48 116.41 C 764.58 117.32 754.68 118.21 744.78 119.06 C 744.77 86.88 744.74 54.69 744.79 22.51 C 754.68 21.63 764.57 20.72 774.46 19.88 C 774.51 31.94 774.46 44.00 774.49 56.05 C 792.49 54.48 810.49 52.85 828.49 51.24 C 828.53 39.17 828.49 27.10 828.51 15.04 Z" />
    <path d=" M 612.93 34.29 C 648.94 31.07 684.96 27.84 720.97 24.64 C 720.98 32.69 720.99 40.74 720.97 48.79 C 707.92 49.94 694.87 51.11 681.82 52.28 C 681.78 76.42 681.83 100.56 681.80 124.70 C 671.90 125.59 662.00 126.49 652.10 127.35 C 652.06 103.22 652.11 79.09 652.07 54.95 C 639.02 56.06 625.98 57.29 612.93 58.42 C 612.91 50.38 612.91 42.33 612.93 34.29 Z" />
    <path d=" M 1498.89 144.44 C 1514.25 143.18 1529.84 142.11 1545.11 144.88 C 1553.34 146.51 1561.66 150.32 1566.55 157.43 C 1571.57 164.53 1572.62 173.47 1572.87 181.93 C 1570.08 182.20 1567.30 182.45 1564.53 182.71 C 1564.78 185.92 1564.96 189.14 1565.14 192.36 C 1561.49 192.67 1557.85 193.00 1554.24 193.46 C 1556.29 198.59 1562.95 198.65 1566.28 202.71 C 1577.14 213.75 1576.35 232.06 1570.23 245.29 C 1562.15 257.69 1551.91 268.58 1544.45 281.42 C 1539.52 289.97 1530.66 295.36 1521.67 298.81 C 1506.65 304.22 1490.70 306.25 1474.89 307.77 C 1459.22 309.05 1443.32 310.09 1427.76 307.27 C 1419.27 305.59 1410.67 301.69 1405.62 294.37 C 1400.68 287.43 1399.60 278.70 1399.32 270.42 C 1402.17 270.13 1405.04 269.89 1407.92 269.63 C 1407.49 266.06 1407.22 262.48 1407.04 258.89 C 1410.51 258.59 1413.99 258.26 1417.48 257.95 C 1417.14 255.82 1416.82 253.69 1416.51 251.56 C 1399.53 244.24 1397.94 221.65 1404.80 206.72 C 1413.43 192.64 1423.98 179.97 1433.36 166.37 C 1439.00 159.04 1447.71 155.14 1456.19 152.10 C 1469.99 147.58 1484.49 145.84 1498.89 144.44 M 1471.40 178.74 C 1492.67 178.15 1515.91 173.99 1535.38 184.99 C 1535.31 176.87 1527.06 173.29 1519.98 173.80 C 1503.72 174.24 1487.37 175.52 1471.40 178.74 M 1468.11 181.51 C 1464.93 181.39 1464.15 184.65 1463.31 187.04 C 1479.38 184.09 1495.71 182.58 1512.03 182.15 C 1519.37 181.79 1528.01 184.74 1529.61 192.85 C 1533.09 192.95 1536.59 192.90 1540.08 192.62 C 1532.66 183.25 1520.24 180.70 1508.96 179.88 C 1495.33 179.11 1481.65 180.02 1468.11 181.51 M 1420.86 190.80 C 1422.52 190.12 1424.18 189.44 1425.86 188.75 C 1425.95 186.74 1426.05 184.73 1426.16 182.72 C 1423.40 184.67 1421.74 187.59 1420.86 190.80 M 1551.84 183.84 C 1552.72 186.30 1553.58 188.77 1554.40 191.26 C 1557.28 191.02 1560.18 190.77 1563.08 190.52 C 1562.86 187.99 1562.65 185.46 1562.43 182.93 C 1558.89 183.20 1555.36 183.51 1551.84 183.84 M 1535.47 185.19 C 1537.94 187.38 1540.25 189.76 1542.39 192.29 C 1545.70 192.06 1549.02 191.78 1552.34 191.46 C 1551.45 188.99 1550.53 186.53 1549.59 184.09 C 1544.88 184.44 1540.17 184.90 1535.47 185.19 M 1463.70 189.32 C 1468.05 195.60 1476.37 194.41 1483.01 194.45 C 1497.84 193.82 1512.67 192.72 1527.54 192.70 C 1524.79 184.05 1514.53 183.82 1507.02 184.24 C 1492.53 185.34 1477.88 185.90 1463.70 189.32 M 1414.94 194.54 C 1416.23 193.68 1417.54 192.82 1418.86 191.96 C 1419.12 190.65 1419.40 189.33 1419.71 188.02 C 1418.09 190.18 1416.49 192.34 1414.94 194.54 M 1420.46 195.13 C 1419.66 203.34 1420.33 212.53 1425.79 219.16 C 1429.04 223.24 1433.96 225.33 1438.66 227.27 C 1436.87 223.60 1436.65 219.48 1438.33 215.72 C 1429.52 210.65 1425.78 200.46 1425.68 190.72 C 1423.79 191.95 1420.51 192.35 1420.46 195.13 M 1545.71 194.16 C 1548.17 194.70 1550.66 195.24 1553.15 195.77 C 1553.02 195.20 1552.75 194.05 1552.61 193.47 C 1550.30 193.69 1548.00 193.91 1545.71 194.16 M 1412.12 202.00 C 1409.19 214.17 1410.53 230.17 1422.74 236.83 C 1435.44 234.15 1448.57 234.21 1461.46 232.69 C 1462.23 236.41 1463.55 241.32 1467.99 242.01 C 1482.00 242.45 1496.03 239.81 1510.05 241.14 C 1516.54 241.69 1522.93 239.86 1529.15 238.23 C 1527.39 232.02 1520.68 230.33 1514.99 230.49 C 1492.99 230.17 1470.96 233.67 1448.99 231.16 C 1440.09 229.96 1430.35 227.89 1424.28 220.69 C 1418.12 213.48 1417.80 203.42 1418.30 194.42 C 1415.75 196.48 1412.63 198.47 1412.12 202.00 M 1415.26 248.70 C 1415.97 247.90 1416.69 247.11 1417.44 246.31 C 1419.90 246.11 1422.36 245.89 1424.84 245.68 C 1424.58 243.79 1424.37 241.91 1424.15 240.03 C 1409.39 233.92 1406.91 216.01 1409.75 202.09 C 1400.32 215.86 1399.58 239.11 1415.26 248.70 M 1439.87 216.82 C 1437.60 221.94 1440.48 228.15 1446.42 228.34 C 1476.18 230.65 1507.53 221.46 1536.22 232.95 C 1536.45 229.56 1536.95 225.40 1533.89 223.05 C 1529.40 219.57 1523.34 220.18 1518.01 220.01 C 1492.02 220.20 1465.11 225.31 1439.87 216.82 M 1528.25 232.00 C 1529.21 233.79 1530.15 235.58 1531.10 237.39 C 1532.25 236.50 1533.44 235.61 1534.63 234.73 C 1532.49 233.80 1530.37 232.91 1528.25 232.00 M 1417.42 248.81 C 1420.14 250.57 1423.26 251.47 1426.40 252.15 C 1425.95 250.61 1425.52 249.09 1425.09 247.56 C 1422.51 247.91 1419.94 248.29 1417.42 248.81 M 1418.66 252.38 C 1418.95 254.19 1419.27 256.00 1419.59 257.81 C 1422.72 257.51 1425.85 257.18 1428.98 256.68 C 1426.53 253.42 1422.28 253.28 1418.66 252.38 M 1419.95 259.79 C 1420.95 262.51 1421.86 265.31 1423.44 267.78 C 1427.86 268.33 1432.29 267.32 1436.71 267.01 C 1437.03 275.47 1445.68 278.86 1453.02 278.42 C 1469.64 278.04 1486.35 276.71 1502.65 273.33 C 1487.76 274.12 1472.78 275.75 1457.91 273.72 C 1447.03 272.70 1435.75 268.37 1429.45 258.97 C 1426.28 259.21 1423.11 259.49 1419.95 259.79 M 1556.29 259.18 C 1555.39 263.25 1560.20 258.00 1556.29 259.18 M 1409.11 260.75 C 1409.36 263.64 1409.65 266.52 1409.99 269.40 C 1413.71 269.11 1417.44 268.78 1421.17 268.44 C 1419.97 265.64 1418.84 262.82 1417.81 259.97 C 1414.90 260.23 1412.00 260.49 1409.11 260.75 M 1549.26 267.64 C 1551.53 265.89 1553.20 263.55 1554.26 260.89 C 1550.95 261.76 1548.86 264.06 1549.26 267.64 M 1500.19 275.91 C 1485.67 278.89 1470.76 279.64 1455.99 280.50 C 1447.64 281.01 1436.60 279.07 1434.78 269.26 C 1431.46 269.55 1428.15 269.85 1424.86 270.22 C 1428.63 274.21 1433.12 277.68 1438.45 279.28 C 1455.06 284.77 1472.87 283.02 1490.01 281.92 C 1509.39 280.03 1529.39 277.94 1546.96 268.89 C 1547.23 267.28 1547.49 265.68 1547.76 264.07 C 1532.45 270.34 1515.47 269.85 1500.19 275.91 M 1410.38 271.48 C 1413.13 284.14 1424.82 292.30 1437.17 293.92 C 1452.65 296.67 1468.45 295.33 1484.01 294.09 C 1501.22 292.22 1518.93 290.33 1534.71 282.71 C 1539.76 280.23 1545.27 277.15 1546.91 271.32 C 1529.82 279.53 1510.75 281.97 1492.08 283.78 C 1476.08 285.09 1459.80 286.20 1443.92 283.13 C 1435.51 281.49 1427.63 277.16 1422.30 270.36 C 1418.32 270.72 1414.35 271.08 1410.38 271.48 M 1401.40 272.24 C 1401.52 283.79 1406.15 296.55 1417.37 301.58 C 1434.86 309.20 1454.51 306.99 1473.02 305.88 C 1491.61 303.99 1510.85 302.20 1527.84 293.80 C 1534.20 290.78 1539.43 285.83 1543.32 280.01 C 1528.62 290.06 1510.54 292.88 1493.26 295.14 C 1472.72 297.19 1451.56 299.67 1431.25 294.74 C 1419.95 292.06 1410.80 283.01 1408.29 271.63 C 1405.98 271.83 1403.68 272.03 1401.40 272.24 Z" />
    <path d=" M 1354.21 160.73 C 1366.75 159.62 1379.28 158.47 1391.83 157.38 C 1391.81 177.93 1391.88 198.47 1391.79 219.02 C 1391.67 233.29 1389.23 248.12 1381.29 260.26 C 1373.29 271.59 1364.17 282.12 1356.95 294.00 C 1349.57 306.13 1336.94 314.26 1323.57 318.39 C 1305.13 323.85 1285.55 325.68 1266.45 323.37 C 1253.15 321.62 1239.79 315.19 1232.52 303.51 C 1223.69 289.77 1223.22 272.81 1223.42 257.00 C 1223.43 239.53 1223.40 222.06 1223.43 204.59 C 1225.98 204.35 1228.54 204.11 1231.11 203.87 C 1231.10 200.28 1231.12 196.68 1231.13 193.09 C 1234.22 192.82 1237.31 192.51 1240.41 192.23 C 1240.43 188.37 1240.43 184.50 1240.45 180.63 C 1243.00 180.39 1245.55 180.15 1248.12 179.91 C 1248.11 176.67 1248.13 173.44 1248.14 170.21 C 1260.68 169.09 1273.21 167.94 1285.76 166.86 C 1285.84 187.56 1285.65 208.26 1285.85 228.96 C 1286.00 238.50 1287.94 249.72 1296.68 255.21 C 1306.57 260.98 1318.71 259.36 1329.48 257.44 C 1329.50 236.67 1329.48 215.90 1329.48 195.13 C 1332.03 194.88 1334.58 194.64 1337.16 194.40 C 1337.16 190.80 1337.18 187.20 1337.20 183.61 C 1340.29 183.33 1343.37 183.05 1346.48 182.77 C 1346.49 178.90 1346.49 175.03 1346.49 171.17 C 1349.04 170.92 1351.60 170.68 1354.17 170.44 C 1354.16 167.21 1354.20 163.97 1354.21 160.73 M 1348.56 172.99 C 1348.55 176.19 1348.54 179.39 1348.56 182.59 C 1350.41 182.41 1352.29 182.24 1354.19 182.08 C 1354.18 178.89 1354.18 175.69 1354.19 172.50 C 1352.30 172.67 1350.42 172.83 1348.56 172.99 M 1242.50 182.46 C 1242.49 185.66 1242.48 188.86 1242.49 192.05 C 1244.35 191.88 1246.22 191.73 1248.11 191.58 C 1248.11 188.37 1248.12 185.17 1248.13 181.97 C 1246.23 182.14 1244.36 182.31 1242.50 182.46 M 1339.25 185.43 C 1339.23 188.36 1339.22 191.29 1339.24 194.23 C 1341.64 194.01 1344.06 193.79 1346.49 193.58 C 1346.48 190.68 1346.48 187.78 1346.50 184.88 C 1344.07 185.06 1341.65 185.24 1339.25 185.43 M 1348.56 184.63 C 1348.54 187.55 1348.55 190.47 1348.55 193.40 C 1350.41 193.22 1352.29 193.05 1354.18 192.89 C 1354.18 189.97 1354.17 187.05 1354.19 184.13 C 1352.30 184.30 1350.42 184.47 1348.56 184.63 M 1242.51 194.09 C 1242.49 197.01 1242.49 199.94 1242.50 202.88 C 1244.35 202.70 1246.22 202.54 1248.10 202.38 C 1248.11 199.45 1248.11 196.53 1248.14 193.61 C 1246.25 193.77 1244.37 193.93 1242.51 194.09 M 1233.18 194.94 C 1233.17 197.87 1233.17 200.79 1233.18 203.72 C 1235.59 203.49 1238.00 203.26 1240.43 203.04 C 1240.43 200.12 1240.42 197.20 1240.43 194.29 C 1238.00 194.50 1235.59 194.72 1233.18 194.94 M 1348.54 195.48 C 1347.90 213.07 1350.24 230.96 1346.48 248.30 C 1357.95 232.93 1353.14 212.69 1354.18 194.92 C 1352.28 195.11 1350.41 195.30 1348.54 195.48 M 1339.24 196.26 C 1338.99 215.66 1339.80 235.09 1338.67 254.47 C 1345.58 251.06 1345.69 242.60 1346.28 235.94 C 1346.75 222.51 1346.38 209.06 1346.48 195.63 C 1344.05 195.84 1341.65 196.05 1339.24 196.26 M 1331.55 196.96 C 1331.53 216.95 1331.53 236.95 1331.56 256.94 C 1333.15 256.36 1334.77 255.78 1336.40 255.21 C 1337.98 235.67 1336.83 216.04 1337.18 196.46 C 1335.29 196.63 1333.41 196.79 1331.55 196.96 M 1233.19 205.74 C 1233.16 221.17 1233.18 236.60 1233.18 252.03 C 1233.18 266.06 1234.82 281.04 1243.30 292.72 C 1250.97 303.48 1264.12 308.92 1276.96 310.07 C 1295.74 312.02 1314.96 309.96 1332.95 304.23 C 1343.16 300.55 1353.44 294.95 1359.52 285.63 C 1340.68 297.41 1317.87 300.42 1296.05 300.40 C 1281.59 300.14 1266.03 297.17 1255.34 286.67 C 1244.79 276.44 1241.20 261.25 1240.62 247.03 C 1240.22 233.06 1240.54 219.07 1240.43 205.10 C 1238.00 205.31 1235.60 205.53 1233.19 205.74 M 1242.51 204.92 C 1243.56 227.48 1239.15 251.32 1248.23 272.74 C 1254.77 288.35 1271.59 296.95 1287.89 297.76 C 1309.20 299.38 1331.49 297.15 1351.04 288.05 C 1355.43 285.75 1360.43 283.42 1362.19 278.36 C 1349.95 284.40 1336.54 287.74 1322.99 289.04 C 1313.93 289.29 1306.14 294.93 1297.02 295.08 C 1286.53 296.17 1273.96 296.12 1266.37 287.59 C 1261.01 282.29 1261.38 274.03 1256.77 268.27 C 1245.08 249.11 1248.81 225.74 1248.12 204.41 C 1246.24 204.58 1244.36 204.75 1242.51 204.92 M 1225.49 206.42 C 1225.49 226.26 1225.44 246.10 1225.51 265.93 C 1225.66 279.46 1227.71 293.84 1236.11 304.90 C 1243.43 314.66 1255.35 319.86 1267.21 321.34 C 1285.42 323.52 1304.11 321.87 1321.72 316.80 C 1334.63 313.29 1346.52 305.70 1354.34 294.75 C 1335.73 309.50 1310.98 312.56 1287.99 312.90 C 1272.43 312.75 1255.37 309.60 1244.47 297.53 C 1233.54 285.58 1231.13 268.59 1231.13 253.01 C 1231.09 237.32 1231.15 221.63 1231.11 205.94 C 1229.22 206.11 1227.35 206.27 1225.49 206.42 M 1262.57 276.20 C 1264.68 282.74 1268.83 289.09 1275.62 291.42 C 1286.94 295.28 1299.34 293.38 1310.60 290.23 C 1293.75 290.21 1275.46 288.26 1262.57 276.20 M 1364.19 276.49 C 1362.10 281.12 1368.67 275.74 1364.19 276.49 Z" />
    <path d=" M 1129.02 177.72 C 1148.48 175.50 1169.22 174.59 1187.58 182.52 C 1201.66 188.56 1210.34 202.80 1212.72 217.52 C 1209.34 217.83 1205.98 218.15 1202.61 218.44 C 1203.48 221.58 1204.28 224.74 1205.04 227.92 C 1200.87 228.32 1196.70 228.69 1192.55 229.09 C 1192.96 230.32 1193.38 231.56 1193.83 232.80 C 1200.57 232.22 1207.32 231.59 1214.07 231.01 C 1214.08 252.52 1214.10 274.04 1214.05 295.55 C 1211.49 295.78 1208.93 296.00 1206.40 296.24 C 1206.39 299.47 1206.36 302.70 1206.38 305.93 C 1203.28 306.22 1200.18 306.53 1197.09 306.80 C 1197.07 310.68 1197.05 314.55 1197.03 318.43 C 1194.47 318.66 1191.92 318.88 1189.39 319.12 C 1189.37 322.71 1189.36 326.30 1189.37 329.90 C 1180.26 330.76 1171.15 331.54 1162.04 332.36 C 1161.99 330.58 1161.97 328.80 1161.95 327.02 C 1142.14 337.78 1119.14 340.10 1096.98 341.03 C 1082.00 341.16 1066.04 340.27 1053.02 332.00 C 1045.29 327.27 1039.91 319.63 1036.40 311.41 C 1033.40 311.69 1030.40 311.96 1027.41 312.23 C 1029.00 315.32 1030.60 318.41 1032.18 321.51 C 1027.17 321.98 1022.16 322.41 1017.16 322.88 C 1019.06 326.58 1020.97 330.27 1022.88 333.97 C 1018.54 334.38 1014.21 334.76 1009.87 335.15 C 1011.63 338.59 1013.40 342.03 1015.17 345.47 C 1001.47 346.70 987.78 347.97 974.08 349.12 C 971.85 344.82 969.62 340.51 967.44 336.19 C 946.28 338.05 925.13 339.88 903.99 341.89 C 899.17 345.47 896.68 350.88 894.43 356.27 C 880.70 357.49 866.97 358.74 853.24 359.94 C 873.31 317.63 893.11 275.18 913.40 232.99 C 919.58 230.65 917.79 220.68 924.99 219.96 C 926.91 216.21 928.69 212.39 930.46 208.56 C 931.53 208.27 932.62 207.98 933.72 207.69 C 935.20 204.42 936.74 201.17 938.28 197.92 C 951.98 196.61 965.71 195.47 979.42 194.20 C 997.32 228.66 1015.10 263.18 1032.96 297.67 C 1030.98 280.08 1031.68 261.23 1040.36 245.38 C 1049.46 230.74 1060.24 217.30 1070.30 203.32 C 1084.53 186.03 1107.69 180.10 1129.02 177.72 M 1118.20 210.74 C 1136.00 210.02 1155.06 210.99 1170.47 220.98 C 1167.36 213.33 1159.88 208.34 1151.78 207.57 C 1140.53 206.57 1129.04 207.51 1118.20 210.74 M 1102.66 222.43 C 1115.01 216.31 1129.15 214.97 1142.74 215.71 C 1151.74 216.24 1160.38 221.21 1164.29 229.52 C 1167.99 229.22 1171.69 228.89 1175.40 228.52 C 1160.51 212.92 1137.12 211.86 1116.96 212.91 C 1110.57 212.56 1106.32 218.03 1102.66 222.43 M 1103.56 224.57 C 1100.55 225.99 1099.82 229.35 1098.98 232.24 C 1110.26 228.65 1122.27 227.32 1134.07 228.25 C 1140.78 228.79 1147.02 231.87 1151.79 236.58 C 1160.96 235.72 1170.13 234.95 1179.30 234.09 C 1178.51 232.89 1177.72 231.70 1176.94 230.52 C 1172.26 230.85 1167.60 231.28 1162.94 231.68 C 1159.55 223.19 1150.95 218.02 1141.98 217.76 C 1129.00 217.37 1115.08 217.88 1103.56 224.57 M 1187.82 219.77 C 1189.19 222.20 1190.54 224.64 1191.86 227.11 C 1195.40 226.77 1198.95 226.45 1202.51 226.11 C 1201.72 223.62 1200.95 221.14 1200.18 218.66 C 1196.05 219.02 1191.94 219.38 1187.82 219.77 M 1170.41 221.23 C 1173.07 223.44 1175.60 225.82 1178.03 228.29 C 1181.87 227.99 1185.71 227.64 1189.56 227.26 C 1188.24 224.83 1186.88 222.43 1185.50 220.05 C 1180.46 220.37 1175.44 220.89 1170.41 221.23 M 1056.53 227.81 C 1058.91 226.11 1060.15 223.50 1060.82 220.74 C 1059.09 222.90 1057.64 225.27 1056.53 227.81 M 918.29 232.77 C 920.91 229.47 922.68 225.59 923.81 221.55 C 921.24 224.88 919.45 228.74 918.29 232.77 M 1054.20 234.22 C 1050.66 247.06 1050.34 260.68 1052.20 273.83 C 1053.96 285.93 1059.40 298.19 1069.76 305.28 C 1081.97 313.91 1097.51 314.98 1111.98 315.06 C 1135.58 314.27 1160.23 311.90 1181.02 299.72 C 1181.04 301.87 1181.06 304.02 1181.09 306.18 C 1183.18 305.99 1185.26 305.81 1187.37 305.63 C 1187.38 301.31 1186.98 297.01 1186.55 292.72 C 1173.19 300.00 1158.12 303.39 1143.11 305.05 C 1131.75 305.56 1121.57 311.71 1110.11 311.79 C 1100.19 312.51 1088.98 312.77 1080.74 306.31 C 1074.91 302.04 1074.00 294.13 1068.56 289.49 C 1054.85 272.39 1055.54 248.58 1058.52 228.02 C 1056.73 229.81 1054.73 231.62 1054.20 234.22 M 1098.38 234.92 C 1098.24 237.20 1098.09 239.47 1097.97 241.76 C 1111.37 239.46 1126.24 237.02 1138.84 243.64 C 1138.83 241.66 1138.84 239.69 1138.88 237.71 C 1142.27 237.43 1145.66 237.10 1149.07 236.72 C 1144.02 232.48 1137.57 230.22 1131.01 230.10 C 1120.00 229.96 1108.63 230.51 1098.38 234.92 M 1179.36 230.24 C 1180.08 231.44 1180.81 232.64 1181.56 233.84 C 1184.86 233.61 1188.16 233.32 1191.47 233.02 C 1191.06 231.77 1190.66 230.52 1190.28 229.27 C 1186.64 229.58 1182.99 229.91 1179.36 230.24 M 915.25 238.08 C 898.32 274.11 881.19 310.05 864.26 346.09 C 875.50 345.14 886.74 344.13 897.97 343.07 C 901.22 340.23 904.23 337.06 905.64 332.86 C 893.84 333.82 882.05 334.97 870.26 335.97 C 886.14 301.60 903.19 267.70 918.40 233.05 C 917.20 234.64 916.11 236.30 915.25 238.08 M 873.56 333.63 C 886.13 331.50 899.92 333.79 911.47 327.68 C 912.26 325.89 913.11 324.12 913.96 322.36 C 901.96 323.42 889.97 324.53 877.97 325.56 C 892.30 294.75 907.33 264.25 921.29 233.29 C 904.87 266.47 889.49 300.20 873.56 333.63 M 1041.79 270.02 C 1041.48 287.29 1045.24 307.16 1060.37 317.69 C 1072.67 326.43 1088.37 327.48 1102.97 327.53 C 1126.48 326.69 1151.08 324.35 1171.76 312.13 C 1171.75 314.30 1171.74 316.46 1171.76 318.64 C 1176.94 318.20 1182.12 317.74 1187.30 317.25 C 1187.30 314.06 1187.31 310.87 1187.31 307.69 C 1184.55 307.91 1181.80 308.16 1179.05 308.39 C 1179.00 306.61 1178.97 304.84 1178.95 303.07 C 1160.06 313.34 1138.18 315.90 1117.03 316.94 C 1096.86 317.78 1072.82 315.89 1059.62 298.43 C 1046.53 279.66 1047.44 254.77 1052.14 233.33 C 1043.02 242.99 1042.44 257.46 1041.79 270.02 M 957.92 239.68 C 956.63 243.25 952.66 247.08 954.98 251.00 C 958.84 258.51 962.67 266.03 966.61 273.49 C 969.46 273.24 972.31 272.98 975.17 272.73 C 969.40 261.72 963.94 250.55 957.92 239.68 M 1097.72 243.93 C 1097.46 255.49 1100.66 269.57 1112.93 273.84 C 1115.29 271.50 1118.72 271.65 1121.78 271.33 C 1121.78 267.75 1121.80 264.18 1121.82 260.60 C 1124.91 260.33 1128.00 260.04 1131.10 259.77 C 1131.10 255.91 1131.10 252.05 1131.12 248.20 C 1133.91 247.88 1136.71 247.61 1139.50 247.11 C 1127.59 238.22 1111.30 241.72 1097.72 243.93 M 1041.75 317.30 C 1051.13 333.79 1071.39 338.85 1089.09 338.93 C 1114.60 338.88 1141.46 336.72 1164.01 323.68 C 1164.03 325.83 1164.05 327.98 1164.09 330.14 C 1171.83 329.46 1179.57 328.77 1187.31 328.05 C 1187.31 325.14 1187.30 322.22 1187.31 319.31 C 1181.45 319.82 1175.59 320.34 1169.74 320.86 C 1169.69 319.09 1169.66 317.32 1169.64 315.55 C 1146.57 327.66 1119.66 329.82 1094.04 329.32 C 1077.26 329.02 1058.62 323.80 1048.95 309.00 C 1037.17 289.80 1038.14 265.46 1043.28 244.29 C 1031.02 266.33 1031.03 294.68 1041.75 317.30 M 1133.16 250.01 C 1133.16 253.21 1133.16 256.41 1133.18 259.61 C 1135.04 259.42 1136.92 259.24 1138.81 259.06 C 1138.80 255.86 1138.80 252.66 1138.79 249.46 C 1136.91 249.65 1135.03 249.83 1133.16 250.01 M 952.54 250.89 C 950.43 255.36 948.31 259.83 946.15 264.29 C 947.89 267.83 949.71 271.35 951.57 274.85 C 955.79 274.46 960.03 274.08 964.26 273.70 C 960.36 266.09 956.45 258.49 952.54 250.89 M 1133.18 261.63 C 1133.16 264.55 1133.16 267.47 1133.17 270.39 C 1141.78 269.57 1150.42 268.95 1159.03 268.05 C 1162.44 267.76 1164.45 264.63 1166.72 262.47 C 1157.44 263.17 1148.18 264.11 1138.90 264.88 C 1138.85 263.94 1138.76 262.04 1138.71 261.09 C 1136.85 261.28 1135.01 261.46 1133.18 261.63 M 1123.86 262.46 C 1123.85 265.38 1123.85 268.29 1123.86 271.21 C 1126.26 271.00 1128.67 270.79 1131.09 270.58 C 1131.10 267.66 1131.10 264.74 1131.10 261.82 C 1128.68 262.03 1126.27 262.24 1123.86 262.46 M 940.74 275.79 C 943.55 275.55 946.38 275.29 949.21 275.03 C 947.82 272.29 946.42 269.57 945.00 266.86 C 943.54 269.82 942.12 272.80 940.74 275.79 M 1123.83 273.29 C 1123.85 273.91 1123.89 275.14 1123.91 275.75 C 1130.73 275.77 1137.57 275.36 1144.32 274.29 C 1140.03 274.46 1135.77 274.89 1131.50 275.17 C 1131.26 274.53 1130.77 273.25 1130.52 272.61 C 1128.29 272.85 1126.04 273.07 1123.83 273.29 M 1115.43 274.32 C 1117.49 274.81 1119.59 275.26 1121.68 275.70 C 1121.72 275.11 1121.79 273.94 1121.83 273.35 C 1119.68 273.64 1117.55 273.94 1115.43 274.32 M 1075.89 296.67 C 1078.92 303.01 1084.75 307.83 1091.74 309.08 C 1103.89 311.32 1116.51 309.71 1128.30 306.32 C 1110.50 307.36 1091.34 306.68 1075.89 296.67 M 1189.37 297.78 C 1189.36 300.33 1189.36 302.88 1189.38 305.44 C 1191.24 305.26 1193.13 305.10 1195.02 304.94 C 1195.00 302.37 1194.99 299.80 1194.98 297.23 C 1193.10 297.42 1191.23 297.60 1189.37 297.78 M 1197.07 297.06 C 1197.06 299.62 1197.05 302.19 1197.07 304.75 C 1199.47 304.53 1201.89 304.32 1204.32 304.10 C 1204.31 301.55 1204.31 298.99 1204.32 296.44 C 1201.89 296.64 1199.48 296.85 1197.07 297.06 M 953.88 305.19 C 954.24 306.38 954.62 307.57 955.01 308.77 C 944.74 309.59 934.49 310.61 924.23 311.46 C 923.47 312.87 922.71 314.28 921.99 315.71 C 943.23 313.88 964.47 311.91 985.71 310.06 C 987.92 314.38 990.14 318.69 992.35 323.02 C 995.16 322.79 997.98 322.54 1000.81 322.31 C 997.10 315.65 994.24 308.45 990.00 302.12 C 977.94 302.83 965.92 304.27 953.88 305.19 M 937.96 306.63 C 933.36 307.19 928.40 306.70 924.26 309.11 C 933.79 308.71 943.42 308.18 952.79 306.35 C 947.92 304.92 942.88 306.40 937.96 306.63 M 1189.38 307.48 C 1189.37 310.67 1189.36 313.86 1189.37 317.06 C 1191.23 316.90 1193.10 316.75 1194.98 316.61 C 1194.99 313.40 1195.00 310.18 1195.00 306.97 C 1193.11 307.14 1191.24 307.32 1189.38 307.48 M 921.37 317.92 C 920.19 320.10 918.53 322.01 916.08 322.75 C 915.17 324.53 914.26 326.31 913.41 328.11 C 934.39 326.30 955.37 324.37 976.36 322.52 C 978.61 326.83 980.83 331.16 983.07 335.50 C 990.89 334.81 998.71 334.11 1006.54 333.41 C 1004.98 330.35 1003.41 327.30 1001.84 324.26 C 998.25 324.56 994.67 324.86 991.10 325.18 C 988.86 320.86 986.64 316.53 984.40 312.20 C 963.39 314.13 942.36 315.84 921.37 317.92 M 1012.33 313.58 C 1013.60 316.02 1014.87 318.47 1016.15 320.91 C 1020.40 320.54 1024.65 320.16 1028.90 319.77 C 1027.63 317.32 1026.37 314.88 1025.10 312.45 C 1020.84 312.81 1016.58 313.19 1012.33 313.58 M 999.32 314.74 C 1000.56 317.19 1001.83 319.63 1003.11 322.08 C 1006.68 321.77 1010.25 321.45 1013.82 321.11 C 1012.57 318.66 1011.31 316.22 1010.05 313.79 C 1006.47 314.09 1002.88 314.41 999.32 314.74 M 1004.12 324.05 C 1005.68 327.11 1007.26 330.16 1008.87 333.20 C 1012.43 332.89 1015.99 332.57 1019.56 332.22 C 1018.01 329.16 1016.43 326.11 1014.84 323.07 C 1011.26 323.39 1007.69 323.71 1004.12 324.05 M 916.98 329.83 C 913.61 329.98 910.74 331.83 907.73 333.11 C 906.59 335.29 905.60 337.54 904.46 339.72 C 925.88 337.88 947.28 335.89 968.70 334.02 C 970.91 338.34 973.13 342.66 975.35 346.99 C 987.53 345.93 999.71 344.82 1011.89 343.74 C 1010.44 340.94 1009.26 337.93 1007.19 335.52 C 998.70 335.89 990.26 337.04 981.79 337.65 C 979.55 333.32 977.33 329.00 975.09 324.68 C 955.72 326.38 936.35 328.16 916.98 329.83 M 861.41 348.60 C 858.90 350.78 858.19 354.67 856.57 357.59 C 868.75 356.56 880.93 355.42 893.11 354.35 C 894.58 351.30 896.04 348.25 897.50 345.20 C 885.48 346.41 873.38 347.05 861.41 348.60 Z" />
    <path d=" M 740.35 215.57 C 768.56 213.12 796.75 210.37 824.98 208.12 C 840.59 206.82 856.80 214.62 864.54 228.41 C 873.92 244.33 871.08 265.53 859.72 279.70 C 852.43 289.77 844.30 299.25 837.90 309.95 C 830.06 322.66 816.50 331.78 801.64 333.78 C 791.23 335.18 780.72 335.69 770.28 336.81 C 770.26 339.51 770.26 342.21 770.26 344.91 C 767.17 345.19 764.09 345.47 761.01 345.75 C 760.96 349.62 760.95 353.50 760.94 357.38 C 758.37 357.61 755.81 357.85 753.26 358.09 C 753.26 361.68 753.25 365.28 753.25 368.87 C 740.71 369.99 728.17 371.15 715.63 372.21 C 715.62 331.47 715.63 290.72 715.62 249.98 C 718.18 249.71 720.74 249.48 723.31 249.21 C 723.31 245.62 723.32 242.03 723.33 238.44 C 726.42 238.17 729.52 237.87 732.63 237.60 C 732.63 233.73 732.63 229.86 732.65 226.00 C 735.20 225.75 737.75 225.51 740.31 225.27 C 740.31 222.03 740.34 218.80 740.35 215.57 M 734.70 227.83 C 734.69 231.02 734.69 234.22 734.69 237.41 C 736.56 237.24 738.43 237.08 740.32 236.93 C 740.32 233.73 740.32 230.53 740.33 227.33 C 738.44 227.50 736.57 227.67 734.70 227.83 M 734.70 239.47 C 734.69 242.38 734.69 245.30 734.69 248.22 C 736.56 248.05 738.43 247.89 740.32 247.74 C 740.32 244.81 740.32 241.88 740.32 238.95 C 738.44 239.13 736.57 239.30 734.70 239.47 M 777.13 243.99 C 789.29 244.34 801.55 240.62 813.62 243.55 C 820.92 245.03 827.29 249.10 833.03 253.67 C 832.83 244.91 824.77 237.63 815.94 239.38 C 803.08 241.26 789.54 240.27 777.13 243.99 M 725.39 240.28 C 725.37 243.20 725.37 246.13 725.38 249.06 C 727.79 248.84 730.20 248.63 732.62 248.41 C 732.63 245.49 732.63 242.58 732.63 239.66 C 730.21 239.86 727.80 240.07 725.39 240.28 M 777.99 246.40 C 777.97 247.74 777.96 249.09 777.97 250.45 C 789.66 249.71 801.31 247.82 813.03 247.75 C 822.04 248.28 827.63 257.19 827.43 265.63 C 829.60 262.78 831.39 259.65 832.51 256.24 C 825.76 250.01 817.25 245.51 808.00 244.69 C 797.97 243.88 787.98 245.78 777.99 246.40 M 734.71 250.26 C 734.68 282.19 734.68 314.11 734.70 346.04 C 740.20 345.58 745.70 345.08 751.19 344.57 C 751.19 342.01 751.20 339.46 751.20 336.92 C 747.57 337.22 743.95 337.54 740.34 337.86 C 740.31 308.50 740.35 279.14 740.32 249.78 C 738.44 249.94 736.57 250.10 734.71 250.26 M 778.00 252.49 C 777.98 255.69 777.97 258.88 777.98 262.08 C 786.36 261.55 794.71 260.18 803.11 260.17 C 809.28 260.30 814.26 264.75 816.93 270.02 C 819.82 269.06 824.91 269.07 824.92 265.00 C 825.98 257.07 819.11 249.29 811.05 249.71 C 800.01 250.27 789.02 251.65 778.00 252.49 M 725.37 251.12 C 725.39 286.92 725.35 322.72 725.39 358.52 C 733.99 357.76 742.60 357.00 751.20 356.20 C 751.20 353.01 751.20 349.82 751.20 346.64 C 745.01 347.16 738.83 347.73 732.65 348.26 C 732.61 315.66 732.67 283.05 732.62 250.45 C 730.20 250.67 727.78 250.89 725.37 251.12 M 717.69 251.79 C 717.67 291.19 717.68 330.60 717.69 370.01 C 728.86 369.02 740.03 368.04 751.20 367.01 C 751.20 364.10 751.19 361.18 751.20 358.27 C 741.90 359.07 732.62 359.93 723.33 360.74 C 723.30 324.26 723.33 287.77 723.31 251.29 C 721.43 251.46 719.56 251.63 717.69 251.79 M 777.98 264.13 C 777.97 267.06 777.97 269.98 777.98 272.91 C 790.16 271.42 802.47 271.61 814.64 270.01 C 811.90 265.63 807.43 261.96 802.00 262.18 C 793.97 262.41 785.99 263.56 777.98 264.13 M 845.46 291.93 C 844.50 292.69 843.33 294.12 843.96 295.40 C 845.81 296.34 848.23 290.99 845.46 291.93 M 807.88 301.21 C 802.78 301.11 799.05 305.22 794.17 305.95 C 788.81 306.82 783.37 306.98 777.99 307.56 C 777.98 308.57 777.97 310.59 777.97 311.60 C 790.93 310.40 803.92 309.43 816.86 308.05 C 826.18 306.29 838.32 303.99 842.68 294.52 C 831.78 299.62 819.69 300.39 807.88 301.21 M 777.08 305.11 C 784.64 305.18 792.44 304.88 799.62 302.25 C 792.14 303.05 784.10 302.12 777.08 305.11 M 778.00 313.65 C 777.98 316.84 777.97 320.04 777.98 323.24 C 789.97 321.89 802.15 321.78 814.00 319.34 C 824.45 316.66 834.58 310.70 840.50 301.47 C 822.02 313.66 798.90 310.55 778.00 313.65 M 777.99 325.28 C 777.97 328.20 777.97 331.12 777.98 334.05 C 787.32 333.04 796.79 332.91 806.00 330.90 C 817.53 328.25 827.71 320.98 834.64 311.47 C 818.64 324.50 797.29 323.17 777.99 325.28 M 761.01 337.59 C 760.98 339.63 760.96 341.66 760.94 343.70 C 763.36 343.49 765.78 343.27 768.21 343.06 C 768.20 341.03 768.20 339.00 768.22 336.98 C 765.80 337.18 763.41 337.39 761.01 337.59 M 753.24 338.32 C 753.25 340.34 753.26 342.37 753.28 344.40 C 755.14 344.22 757.03 344.05 758.91 343.89 C 758.89 341.86 758.88 339.82 758.89 337.79 C 757.00 337.97 755.12 338.15 753.24 338.32 M 753.27 346.43 C 753.26 349.63 753.25 352.83 753.26 356.04 C 755.13 355.86 757.01 355.69 758.90 355.53 C 758.90 352.33 758.90 349.13 758.90 345.94 C 757.01 346.10 755.14 346.27 753.27 346.43 Z" />
    <path d=" M 623.46 222.77 C 640.37 221.21 657.97 220.24 674.30 225.83 C 684.35 229.20 693.40 236.02 698.49 245.43 C 704.64 256.53 706.03 269.54 705.86 282.02 C 705.60 295.74 703.36 310.01 695.76 321.72 C 687.59 333.22 678.33 343.92 671.05 356.04 C 663.28 368.48 649.71 376.02 635.89 379.87 C 616.09 385.07 595.41 387.32 574.97 386.02 C 560.79 385.31 545.72 380.96 536.15 369.87 C 526.49 358.68 524.00 343.30 523.88 328.98 C 523.75 313.41 526.68 297.01 536.39 284.40 C 544.28 272.15 553.53 260.88 561.94 248.98 C 576.73 230.74 601.20 225.14 623.46 222.77 M 608.98 256.36 C 627.13 255.03 646.62 256.19 662.29 266.44 C 659.53 260.21 654.15 255.19 647.39 253.77 C 634.66 251.02 621.39 253.00 608.98 256.36 M 594.49 267.84 C 606.69 261.81 620.65 260.31 634.09 261.12 C 642.86 261.59 651.95 266.00 655.62 274.37 C 660.46 285.38 659.58 297.98 657.26 309.51 C 664.13 300.57 665.42 288.82 664.56 277.91 C 664.27 274.46 664.16 270.21 660.77 268.25 C 645.46 257.67 625.83 257.33 607.93 258.42 C 601.90 258.40 598.01 263.69 594.49 267.84 M 595.74 269.74 C 592.58 271.14 591.66 274.57 590.79 277.60 C 605.41 273.58 621.91 270.65 636.38 276.61 C 650.46 283.78 650.64 302.00 649.23 315.66 C 651.85 313.82 654.93 311.90 655.34 308.40 C 657.84 297.37 658.20 285.10 653.36 274.64 C 649.22 265.94 638.95 262.91 630.00 262.93 C 618.37 262.99 606.07 263.89 595.74 269.74 M 548.42 273.07 C 550.91 271.47 552.01 268.74 552.77 266.02 C 551.04 268.19 549.54 270.53 548.42 273.07 M 543.28 295.32 C 542.03 313.77 543.78 335.34 558.64 348.35 C 574.47 361.58 596.59 360.93 616.03 359.91 C 635.07 358.18 655.01 355.80 671.66 345.65 C 674.19 344.40 675.49 341.86 676.60 339.41 C 665.21 344.84 652.87 347.91 640.43 349.72 C 634.26 350.66 627.84 350.61 621.99 353.01 C 613.11 356.54 603.45 357.38 593.99 357.54 C 586.50 357.50 578.41 356.51 572.43 351.59 C 566.67 347.24 565.76 339.33 560.28 334.70 C 546.75 317.64 547.30 293.93 550.43 273.48 C 543.95 278.63 544.57 287.91 543.28 295.32 M 590.31 280.18 C 590.13 282.49 589.96 284.80 589.81 287.11 C 603.00 284.96 617.72 282.37 630.10 288.88 C 640.30 294.75 642.08 307.59 642.28 318.28 C 643.92 317.58 645.56 316.88 647.20 316.18 C 648.03 305.78 648.62 294.34 642.89 285.11 C 638.46 278.13 629.77 275.69 621.95 275.45 C 611.26 275.18 600.32 276.22 590.31 280.18 M 533.89 309.02 C 532.88 326.66 534.62 346.93 548.21 359.81 C 561.80 372.33 581.54 373.28 599.04 372.75 C 616.11 372.05 633.32 369.95 649.53 364.36 C 658.92 360.63 668.76 355.63 674.09 346.64 C 661.72 354.33 647.42 357.94 633.16 360.07 C 616.51 362.41 599.51 363.57 582.81 361.08 C 569.84 358.99 556.81 352.74 549.70 341.28 C 538.55 322.60 539.51 299.30 543.93 278.72 C 536.19 286.68 535.02 298.51 533.89 309.02 M 589.51 289.47 C 589.78 299.67 591.36 312.16 601.37 317.52 C 613.42 323.37 627.50 321.08 640.16 318.73 C 640.07 308.46 638.52 295.85 628.48 290.42 C 616.37 284.66 602.16 286.75 589.51 289.47 M 527.58 346.23 C 530.00 361.02 539.82 374.78 554.28 379.77 C 574.05 386.75 595.62 384.54 616.02 381.99 C 635.58 379.19 656.95 373.22 668.84 356.11 C 660.45 362.08 651.08 366.75 641.01 369.04 C 620.32 374.15 598.73 376.14 577.49 374.12 C 563.13 372.57 548.18 366.39 540.32 353.65 C 529.05 334.47 530.03 310.50 535.16 289.55 C 525.18 306.47 524.37 327.29 527.58 346.23 M 679.32 337.12 C 678.41 337.81 677.34 339.16 677.95 340.34 C 679.65 341.17 681.89 336.21 679.32 337.12 M 567.69 341.99 C 570.64 348.11 576.13 352.95 582.90 354.29 C 595.51 356.94 608.62 354.95 620.92 351.65 C 602.86 352.77 583.34 352.24 567.69 341.99 Z" />
    <path d=" M 390.20 246.84 C 432.39 243.08 474.58 239.28 516.77 235.55 C 516.77 245.73 516.78 255.91 516.77 266.09 C 514.21 266.33 511.65 266.57 509.10 266.81 C 509.09 270.04 509.05 273.28 509.05 276.52 C 505.96 276.79 502.87 277.07 499.78 277.34 C 499.77 279.19 499.76 281.04 499.75 282.90 C 503.14 282.60 506.54 282.32 509.93 282.02 C 509.93 292.21 509.95 302.40 509.93 312.59 C 507.36 312.82 504.80 313.05 502.24 313.28 C 502.25 316.51 502.22 319.74 502.22 322.97 C 499.12 323.25 496.02 323.56 492.93 323.84 C 492.93 325.68 492.93 327.53 492.93 329.38 C 500.88 328.71 508.83 327.94 516.79 327.29 C 516.76 337.47 516.78 347.65 516.77 357.83 C 514.21 358.06 511.66 358.29 509.10 358.53 C 509.09 361.77 509.05 365.01 509.03 368.25 C 505.94 368.52 502.86 368.81 499.78 369.09 C 499.76 372.96 499.76 376.84 499.76 380.71 C 497.20 380.94 494.64 381.17 492.09 381.40 C 492.07 385.00 492.05 388.61 492.02 392.22 C 449.84 395.97 407.67 399.76 365.49 403.51 C 365.46 362.75 365.48 321.99 365.48 281.24 C 368.03 280.98 370.59 280.76 373.15 280.50 C 373.16 276.91 373.18 273.31 373.19 269.72 C 376.28 269.44 379.38 269.16 382.47 268.88 C 382.48 265.01 382.49 261.14 382.49 257.28 C 385.05 257.02 387.61 256.79 390.17 256.54 C 390.17 253.30 390.20 250.07 390.20 246.84 M 384.55 259.09 C 384.54 262.29 384.54 265.49 384.55 268.70 C 386.42 268.52 388.30 268.35 390.18 268.19 C 390.18 265.00 390.18 261.81 390.18 258.61 C 388.30 258.78 386.42 258.93 384.55 259.09 M 499.83 267.60 C 499.79 270.16 499.76 272.73 499.74 275.30 C 502.15 275.09 504.57 274.89 506.99 274.68 C 507.01 272.12 507.01 269.56 507.02 266.99 C 504.62 267.19 502.23 267.39 499.83 267.60 M 437.98 273.13 C 434.26 273.51 430.32 273.33 426.95 275.20 C 448.68 274.47 470.32 271.49 492.02 269.93 C 492.05 271.96 492.07 273.99 492.10 276.02 C 493.96 275.83 495.83 275.66 497.70 275.50 C 497.70 272.94 497.70 270.38 497.71 267.83 C 477.80 269.56 457.89 271.40 437.98 273.13 M 375.23 271.58 C 375.22 274.49 375.22 277.41 375.23 280.33 C 377.64 280.12 380.05 279.91 382.47 279.70 C 382.48 276.78 382.48 273.85 382.48 270.93 C 380.06 271.14 377.65 271.36 375.23 271.58 M 384.56 270.74 C 384.54 273.66 384.55 276.58 384.55 279.51 C 386.42 279.33 388.30 279.16 390.18 279.00 C 390.18 276.08 390.18 273.16 390.18 270.24 C 388.30 270.41 386.43 270.58 384.56 270.74 M 427.79 277.73 C 427.80 278.73 427.83 280.73 427.84 281.73 C 448.55 279.91 469.26 278.02 489.97 276.20 C 489.98 274.85 490.00 273.50 490.02 272.15 C 469.27 273.97 448.52 275.79 427.79 277.73 M 492.06 278.03 C 492.06 279.88 492.06 281.74 492.06 283.60 C 493.93 283.42 495.81 283.26 497.70 283.10 C 497.69 281.24 497.69 279.39 497.71 277.54 C 495.82 277.71 493.94 277.87 492.06 278.03 M 428.25 283.87 C 427.74 285.64 427.76 287.50 427.64 289.33 C 448.43 287.55 469.20 285.62 489.99 283.80 C 489.99 281.94 489.99 280.09 490.01 278.24 C 469.43 280.13 448.80 281.73 428.25 283.87 M 384.55 281.56 C 384.55 313.48 384.53 345.40 384.56 377.32 C 419.71 374.21 454.86 371.05 490.01 367.91 C 490.00 366.56 489.99 365.21 489.99 363.87 C 460.39 366.51 430.79 369.11 401.20 371.83 C 401.12 370.91 400.96 369.08 400.88 368.17 C 397.32 368.51 393.75 368.82 390.19 369.14 C 390.16 339.77 390.21 310.40 390.17 281.03 C 388.29 281.21 386.42 281.39 384.55 281.56 M 375.24 282.37 C 375.22 318.18 375.22 353.99 375.23 389.80 C 413.49 386.39 451.74 382.96 489.99 379.56 C 490.00 376.36 490.01 373.16 490.00 369.96 C 454.17 373.14 418.34 376.37 382.50 379.55 C 382.46 346.94 382.51 314.34 382.47 281.74 C 380.06 281.95 377.65 282.16 375.24 282.37 M 367.54 283.05 C 367.53 322.46 367.52 361.87 367.55 401.28 C 408.36 397.66 449.18 394.00 489.99 390.35 C 490.00 387.43 490.00 384.51 490.00 381.60 C 451.06 385.05 412.12 388.56 373.18 392.01 C 373.16 355.53 373.19 319.05 373.17 282.57 C 371.29 282.73 369.41 282.89 367.54 283.05 M 492.93 314.11 C 492.93 316.66 492.92 319.22 492.93 321.78 C 495.34 321.56 497.75 321.35 500.17 321.13 C 500.17 318.58 500.17 316.02 500.18 313.47 C 497.76 313.68 495.34 313.89 492.93 314.11 M 426.93 320.44 C 430.52 321.89 434.40 320.86 438.11 320.61 C 453.79 319.17 469.49 317.79 485.18 316.39 C 485.21 318.42 485.22 320.45 485.27 322.48 C 487.13 322.29 489.00 322.12 490.87 321.96 C 490.87 319.41 490.86 316.85 490.87 314.30 C 469.57 316.46 448.13 317.54 426.93 320.44 M 427.84 323.55 C 427.84 324.56 427.82 326.58 427.81 327.59 C 446.26 325.97 464.71 324.30 483.15 322.66 C 483.16 321.31 483.16 319.96 483.17 318.62 C 464.73 320.23 446.29 321.90 427.84 323.55 M 485.23 324.50 C 485.23 326.35 485.22 328.20 485.21 330.06 C 487.08 329.90 488.96 329.74 490.85 329.60 C 490.85 327.74 490.86 325.87 490.89 324.02 C 489.00 324.18 487.11 324.34 485.23 324.50 M 428.25 329.71 C 427.81 331.51 427.74 333.36 427.63 335.20 C 446.13 333.61 464.61 331.89 483.11 330.28 C 483.11 328.42 483.16 326.56 483.20 324.71 C 464.88 326.39 446.53 327.82 428.25 329.71 M 403.02 368.04 C 403.06 368.43 403.14 369.19 403.19 369.58 C 432.80 366.93 462.41 364.28 492.03 361.64 C 492.05 363.67 492.07 365.71 492.10 367.74 C 493.97 367.55 495.83 367.38 497.71 367.21 C 497.70 364.65 497.70 362.10 497.70 359.54 C 466.14 362.39 434.57 365.12 403.02 368.04 M 499.78 359.36 C 499.77 361.91 499.76 364.47 499.77 367.03 C 502.18 366.82 504.59 366.61 507.01 366.40 C 507.01 363.83 507.01 361.28 507.01 358.72 C 504.60 358.93 502.18 359.14 499.78 359.36 M 492.08 369.75 C 492.07 372.96 492.06 376.16 492.07 379.36 C 493.94 379.19 495.82 379.02 497.71 378.87 C 497.70 375.66 497.71 372.46 497.71 369.26 C 495.83 369.43 493.95 369.59 492.08 369.75 Z" />
    <path d=" M 300.70 254.82 C 308.70 254.06 316.94 253.31 324.78 255.53 C 338.07 258.93 349.25 269.51 353.22 282.66 C 357.87 297.05 354.41 313.38 345.23 325.25 C 342.29 328.94 339.48 332.73 336.90 336.68 C 343.52 348.48 350.12 360.28 356.67 372.12 C 352.40 372.53 348.13 372.91 343.87 373.29 C 345.58 376.37 347.29 379.46 349.00 382.54 C 343.85 383.01 338.70 383.45 333.56 383.95 C 335.58 387.64 337.64 391.31 339.67 394.99 C 335.20 395.42 330.73 395.82 326.27 396.22 C 328.18 399.64 330.09 403.07 331.99 406.50 C 317.88 407.78 303.77 409.02 289.66 410.30 C 284.16 400.63 278.82 390.86 273.35 381.17 C 263.93 382.01 254.51 382.86 245.08 383.69 C 245.05 386.40 245.05 389.11 245.02 391.83 C 241.93 392.10 238.84 392.40 235.76 392.68 C 235.73 396.54 235.73 400.41 235.72 404.29 C 233.16 404.52 230.60 404.76 228.05 405.01 C 228.04 408.60 228.03 412.20 228.02 415.79 C 215.48 416.90 202.95 418.08 190.41 419.11 C 190.41 378.36 190.39 337.61 190.42 296.86 C 192.97 296.62 195.53 296.38 198.08 296.15 C 198.09 292.55 198.11 288.95 198.11 285.35 C 201.21 285.09 204.30 284.78 207.40 284.51 C 207.41 280.64 207.42 276.78 207.42 272.91 C 209.97 272.67 212.51 272.43 215.07 272.20 C 215.08 268.95 215.13 265.71 215.13 262.47 C 243.66 259.93 272.18 257.39 300.70 254.82 M 209.48 274.74 C 209.47 277.94 209.47 281.13 209.47 284.33 C 211.35 284.16 213.22 283.99 215.10 283.84 C 215.11 280.64 215.11 277.44 215.11 274.25 C 213.23 274.42 211.35 274.58 209.48 274.74 M 265.07 288.58 C 260.61 289.13 255.82 288.68 251.75 290.93 C 265.54 291.06 279.19 287.75 292.99 288.62 C 302.36 289.30 310.93 293.75 318.07 299.66 C 317.71 292.22 311.92 285.02 304.05 285.30 C 291.03 285.98 278.07 287.59 265.07 288.58 M 209.48 286.37 C 209.47 289.28 209.47 292.20 209.47 295.11 C 211.34 294.95 213.21 294.81 215.08 294.67 C 215.10 291.74 215.11 288.81 215.11 285.88 C 213.23 286.04 211.35 286.22 209.48 286.37 M 200.16 287.20 C 200.16 290.13 200.15 293.06 200.16 295.99 C 202.57 295.76 204.99 295.54 207.41 295.31 C 207.41 292.40 207.41 289.48 207.41 286.57 C 204.99 286.78 202.58 286.99 200.16 287.20 M 252.77 293.32 C 252.75 294.66 252.74 296.01 252.74 297.36 C 267.51 296.27 282.24 294.37 297.03 293.68 C 306.46 293.61 312.82 302.82 312.45 311.66 C 314.64 308.80 316.46 305.65 317.54 302.20 C 309.59 294.77 298.97 290.11 287.98 290.46 C 276.21 290.87 264.51 292.43 252.77 293.32 M 252.76 299.43 C 252.75 302.62 252.75 305.81 252.75 309.00 C 264.20 308.14 275.61 306.69 287.08 306.13 C 293.61 305.85 299.17 310.36 301.95 315.99 C 304.56 315.19 307.98 315.15 309.65 312.73 C 311.95 304.37 304.79 295.18 296.05 295.71 C 281.60 296.61 267.19 298.23 252.76 299.43 M 209.47 297.18 C 209.46 329.11 209.47 361.03 209.47 392.96 C 214.97 392.49 220.47 391.99 225.98 391.50 C 225.98 388.94 225.99 386.38 225.99 383.82 C 222.36 384.14 218.74 384.46 215.11 384.77 C 215.10 355.41 215.13 326.05 215.10 296.69 C 213.22 296.86 211.35 297.02 209.47 297.18 M 200.16 298.02 C 200.16 333.82 200.15 369.62 200.16 405.43 C 208.77 404.68 217.38 403.91 225.99 403.12 C 225.99 399.93 225.99 396.73 225.99 393.54 C 219.80 394.08 213.61 394.67 207.42 395.14 C 207.40 362.55 207.43 329.96 207.40 297.38 C 204.99 297.59 202.57 297.80 200.16 298.02 M 192.43 298.79 C 192.49 338.17 192.44 377.54 192.46 416.92 C 203.64 415.95 214.81 414.94 225.99 413.93 C 225.99 411.01 225.99 408.09 226.00 405.18 C 216.70 405.98 207.40 406.85 198.10 407.65 C 198.08 371.16 198.12 334.66 198.09 298.17 C 196.20 298.37 194.32 298.58 192.43 298.79 M 252.76 311.07 C 252.75 313.98 252.75 316.89 252.75 319.80 C 268.35 317.98 284.07 317.71 299.68 316.00 C 296.85 311.31 291.87 307.70 286.17 308.16 C 275.02 308.90 263.89 310.12 252.76 311.07 M 288.16 348.20 C 277.57 354.68 264.57 352.51 252.80 354.46 C 252.77 355.80 252.74 357.15 252.71 358.50 C 265.70 357.43 278.66 356.17 291.64 355.08 C 297.05 364.78 302.44 374.50 307.89 384.18 C 310.81 383.93 313.74 383.66 316.66 383.40 C 313.89 377.90 309.83 372.90 308.80 366.69 C 305.87 359.75 301.53 353.48 298.06 346.80 C 294.76 347.16 291.29 346.96 288.16 348.20 M 253.13 350.80 C 252.97 351.20 252.65 352.01 252.49 352.41 C 263.19 351.01 274.33 351.78 284.64 348.26 C 274.10 348.63 263.64 350.02 253.13 350.80 M 252.78 360.56 C 252.76 363.76 252.75 366.95 252.75 370.15 C 262.60 369.31 272.44 368.39 282.28 367.53 C 287.77 377.21 293.09 386.99 298.60 396.66 C 306.69 395.92 314.78 395.18 322.87 394.50 C 321.18 391.46 319.48 388.42 317.80 385.39 C 314.08 385.67 310.37 385.99 306.66 386.33 C 301.16 376.66 295.84 366.88 290.35 357.21 C 277.83 358.33 265.30 359.45 252.78 360.56 M 252.76 372.21 C 252.75 375.12 252.75 378.04 252.75 380.96 C 260.04 380.34 267.33 379.64 274.63 379.04 C 280.03 388.74 285.43 398.45 290.87 408.14 C 303.44 407.02 316.01 405.91 328.58 404.76 C 327.05 401.98 325.50 399.21 323.95 396.45 C 315.04 397.16 306.15 398.08 297.24 398.75 C 291.91 389.03 286.47 379.36 281.05 369.68 C 271.62 370.51 262.19 371.35 252.76 372.21 M 328.39 374.67 C 329.72 377.10 331.05 379.54 332.39 381.97 C 336.80 381.61 341.21 381.21 345.63 380.79 C 344.24 378.34 342.84 375.90 341.42 373.48 C 337.07 373.89 332.73 374.28 328.39 374.67 M 314.92 375.89 C 316.27 378.32 317.63 380.74 318.99 383.18 C 322.69 382.87 326.39 382.53 330.10 382.18 C 328.75 379.75 327.39 377.32 326.04 374.90 C 322.33 375.20 318.63 375.53 314.92 375.89 M 235.78 384.51 C 235.76 386.54 235.74 388.58 235.72 390.62 C 238.14 390.40 240.57 390.19 243.01 389.97 C 242.99 387.94 242.99 385.92 242.99 383.90 C 240.58 384.10 238.18 384.30 235.78 384.51 M 320.07 385.13 C 321.77 388.17 323.46 391.21 325.17 394.24 C 328.87 393.95 332.56 393.62 336.25 393.26 C 334.59 390.19 332.89 387.15 331.16 384.14 C 327.46 384.47 323.77 384.80 320.07 385.13 M 228.04 385.20 C 228.04 387.23 228.04 389.27 228.03 391.31 C 229.90 391.14 231.78 390.98 233.66 390.83 C 233.67 388.79 233.67 386.75 233.68 384.72 C 231.80 384.88 229.92 385.04 228.04 385.20 M 228.05 393.33 C 228.04 396.54 228.04 399.75 228.04 402.96 C 229.92 402.78 231.79 402.60 233.67 402.44 C 233.68 399.25 233.68 396.05 233.67 392.86 C 231.79 393.02 229.92 393.18 228.05 393.33 Z" />
    <path d=" M 85.41 274.11 C 99.16 272.81 112.92 271.56 126.69 270.44 C 146.72 309.43 166.97 348.31 187.04 387.29 C 182.88 387.66 178.72 388.04 174.56 388.41 C 176.16 391.50 177.76 394.59 179.34 397.69 C 174.33 398.16 169.32 398.59 164.32 399.06 C 166.22 402.76 168.13 406.45 170.03 410.15 C 165.69 410.56 161.35 410.94 157.01 411.33 C 158.79 414.76 160.56 418.20 162.33 421.65 C 148.63 422.90 134.93 424.13 121.23 425.32 C 119.01 420.99 116.78 416.67 114.55 412.35 C 93.43 414.25 72.31 416.06 51.19 418.04 C 46.31 421.54 43.86 426.98 41.68 432.38 C 27.94 433.73 14.18 434.90 0.43 436.09 C 19.16 396.27 38.06 356.54 56.81 316.73 C 59.31 309.45 66.20 305.08 68.20 297.49 C 74.43 296.61 74.80 289.18 77.61 284.77 C 78.69 284.46 79.77 284.15 80.85 283.84 C 82.37 280.60 83.90 277.36 85.41 274.11 M 65.54 308.77 C 68.09 305.60 69.79 301.84 70.92 297.96 C 68.34 301.11 66.62 304.86 65.54 308.77 M 62.35 314.38 C 45.44 350.37 28.34 386.29 11.40 422.27 C 22.59 421.27 33.80 420.41 44.97 419.20 C 46.44 417.76 48.03 416.46 49.68 415.25 C 50.74 413.18 51.77 411.11 52.79 409.02 C 41.00 410.02 29.22 411.16 17.43 412.14 C 33.32 377.74 50.33 343.82 65.62 309.18 C 64.37 310.80 63.25 312.53 62.35 314.38 M 20.72 409.81 C 33.22 407.71 46.85 409.90 58.42 404.05 C 59.36 402.23 60.20 400.37 61.14 398.56 C 49.14 399.58 37.14 400.71 25.13 401.74 C 39.47 370.85 54.58 340.28 68.55 309.23 C 52.11 342.50 36.68 376.30 20.72 409.81 M 105.13 315.69 C 103.68 318.69 102.25 321.70 100.87 324.73 C 105.19 333.03 109.39 341.39 113.75 349.67 C 116.61 349.42 119.46 349.16 122.32 348.90 C 116.61 337.82 110.91 326.74 105.13 315.69 M 93.67 340.85 C 94.96 344.39 96.97 347.60 98.63 350.97 C 102.90 350.66 107.16 350.27 111.41 349.87 C 107.51 342.28 103.62 334.68 99.70 327.09 C 97.76 331.70 94.82 335.96 93.67 340.85 M 87.89 351.98 C 90.71 351.73 93.53 351.47 96.35 351.21 C 94.97 348.46 93.58 345.73 92.16 343.01 C 90.71 345.99 89.28 348.98 87.89 351.98 M 101.01 381.36 C 101.38 382.54 101.74 383.73 102.11 384.93 C 91.87 385.81 81.62 386.76 71.38 387.65 C 70.63 389.05 69.89 390.45 69.16 391.87 C 90.41 390.09 111.63 388.07 132.88 386.25 C 135.12 390.38 136.90 394.77 139.45 398.73 C 142.24 399.38 145.14 398.65 147.96 398.51 C 144.49 391.69 140.98 384.89 137.41 378.13 C 125.28 379.21 113.15 380.34 101.01 381.36 M 71.51 385.16 C 80.95 384.66 90.81 384.90 99.89 382.08 C 90.45 382.33 80.53 382.15 71.51 385.16 M 68.26 394.04 C 67.66 395.24 67.07 396.45 66.48 397.67 C 65.43 397.97 64.39 398.27 63.34 398.58 C 62.41 400.48 61.48 402.39 60.55 404.31 C 81.42 402.58 102.25 400.38 123.13 398.87 C 126.24 402.64 127.77 407.45 130.18 411.67 C 138.03 411.01 145.88 410.28 153.73 409.59 C 152.15 406.53 150.56 403.48 148.97 400.44 C 145.39 400.74 141.81 401.04 138.23 401.35 C 136.01 396.98 133.80 392.60 131.41 388.32 C 110.37 390.37 89.31 392.11 68.26 394.04 M 159.53 389.76 C 160.77 392.20 162.02 394.64 163.27 397.07 C 167.54 396.73 171.81 396.34 176.07 395.94 C 174.80 393.49 173.53 391.06 172.25 388.62 C 168.00 388.98 163.76 389.36 159.53 389.76 M 146.48 390.94 C 147.73 393.37 148.98 395.80 150.24 398.23 C 153.82 397.95 157.40 397.64 160.98 397.29 C 159.73 394.84 158.47 392.40 157.20 389.95 C 153.62 390.27 150.05 390.59 146.48 390.94 M 151.26 400.21 C 152.83 403.26 154.41 406.31 156.01 409.36 C 159.58 409.06 163.16 408.75 166.74 408.43 C 165.18 405.36 163.60 402.31 162.00 399.27 C 158.42 399.57 154.84 399.88 151.26 400.21 M 63.96 406.03 C 58.16 406.38 53.15 410.24 51.62 415.89 C 73.04 414.07 94.44 412.06 115.85 410.21 C 118.06 414.49 120.27 418.77 122.41 423.09 C 134.64 422.22 146.84 420.96 159.05 419.91 C 157.62 417.13 156.19 414.35 154.75 411.58 C 146.15 412.24 137.55 413.10 128.95 413.83 C 126.70 409.50 124.48 405.16 122.22 400.84 C 102.80 402.59 83.38 404.34 63.96 406.03 M 8.07 424.58 C 6.58 427.62 5.12 430.69 3.70 433.78 C 15.90 432.72 28.11 431.63 40.31 430.50 C 41.75 427.45 43.21 424.40 44.67 421.35 C 32.47 422.44 20.28 423.61 8.07 424.58 Z" />
    <path d=" M 1159.42 410.81 C 1195.43 407.58 1231.44 404.37 1267.45 401.16 C 1267.47 409.20 1267.46 417.24 1267.46 425.28 C 1254.40 426.50 1241.34 427.58 1228.29 428.82 C 1228.28 452.95 1228.30 477.08 1228.28 501.21 C 1218.38 502.12 1208.48 503.00 1198.58 503.86 C 1198.55 479.73 1198.60 455.59 1198.56 431.46 C 1185.50 432.60 1172.45 433.80 1159.40 434.94 C 1159.40 426.89 1159.38 418.85 1159.42 410.81 Z" />
    <path d=" M 1075.47 415.74 C 1090.03 414.36 1105.51 413.81 1119.15 419.95 C 1131.32 424.99 1137.95 437.56 1139.46 450.12 C 1128.54 451.12 1117.63 452.13 1106.71 453.03 C 1104.73 445.65 1098.31 440.01 1090.60 439.60 C 1079.49 439.04 1067.28 439.31 1057.71 445.69 C 1048.90 452.01 1047.74 464.02 1048.62 473.98 C 1049.01 481.35 1052.68 489.39 1060.19 491.78 C 1070.10 494.93 1080.84 493.19 1090.73 490.81 C 1098.61 488.77 1104.52 482.27 1106.71 474.55 C 1117.65 473.54 1128.59 472.56 1139.53 471.62 C 1138.03 484.10 1133.02 496.94 1122.29 504.27 C 1106.15 515.20 1085.96 516.98 1067.03 517.87 C 1053.71 517.94 1038.86 516.84 1028.39 507.62 C 1018.96 499.27 1016.17 486.07 1015.95 473.99 C 1015.50 459.29 1018.77 443.31 1029.80 432.79 C 1041.93 421.07 1059.30 417.65 1075.47 415.74 Z" />
    <path d=" M 890.90 434.78 C 924.20 431.84 957.49 428.81 990.79 425.88 C 990.82 433.92 990.81 441.96 990.80 449.99 C 967.40 452.12 943.99 454.18 920.59 456.28 C 920.56 460.30 920.56 464.32 920.58 468.34 C 942.19 466.45 963.78 464.46 985.39 462.58 C 985.41 470.62 985.41 478.66 985.39 486.71 C 963.78 488.64 942.18 490.55 920.58 492.51 C 920.56 496.52 920.56 500.54 920.58 504.55 C 943.99 502.51 967.39 500.35 990.81 498.31 C 990.80 506.36 990.82 514.40 990.80 522.44 C 957.48 525.40 924.18 528.41 890.87 531.35 C 890.86 499.16 890.80 466.97 890.90 434.78 Z" />
    <path d=" M 832.34 440.04 C 842.24 439.12 852.14 438.24 862.05 437.38 C 862.07 453.25 862.07 469.12 862.05 484.99 C 862.13 499.17 859.06 514.39 848.93 524.94 C 836.89 537.41 818.71 541.01 802.04 541.72 C 788.33 542.20 772.62 539.82 763.49 528.49 C 755.94 519.25 754.16 506.87 753.98 495.30 C 763.87 494.42 773.77 493.52 783.67 492.67 C 783.92 500.95 785.44 511.13 793.70 515.25 C 802.23 518.96 812.55 517.81 820.75 513.71 C 829.22 509.17 832.16 498.95 832.24 489.95 C 832.48 473.32 832.27 456.68 832.34 440.04 Z" />
    <path d=" M 670.49 451.87 C 686.90 450.79 705.51 450.06 719.19 460.79 C 731.82 471.09 733.56 488.91 732.53 504.09 C 731.90 518.95 725.68 534.55 712.41 542.42 C 696.00 551.86 676.53 553.63 657.98 554.29 C 644.54 554.19 629.38 552.67 619.48 542.51 C 609.74 532.40 608.15 517.41 608.68 504.04 C 609.10 490.03 614.09 475.36 625.46 466.51 C 638.15 456.39 654.79 453.58 670.49 451.87 M 668.30 476.21 C 660.67 477.15 652.39 479.04 647.08 485.05 C 641.63 491.30 640.79 500.11 641.11 508.06 C 641.37 514.68 643.09 522.13 648.87 526.12 C 655.35 530.45 663.60 530.06 671.03 529.51 C 679.14 528.69 688.00 527.06 693.87 520.90 C 699.99 514.26 700.69 504.57 700.16 495.98 C 699.76 489.39 697.55 482.01 691.41 478.58 C 684.37 474.77 675.99 475.47 668.30 476.21 Z" />
    <path d=" M 473.93 472.05 C 498.62 469.85 523.32 467.56 548.03 465.47 C 559.26 464.42 571.07 468.95 577.87 478.12 C 590.19 493.84 584.38 517.45 569.35 529.24 C 574.77 539.05 580.27 548.80 585.70 558.60 C 574.55 559.64 563.39 560.63 552.23 561.59 C 547.96 553.92 543.73 546.24 539.38 538.61 C 527.47 539.70 515.56 540.72 503.65 541.83 C 503.63 549.86 503.64 557.90 503.64 565.94 C 493.74 566.85 483.84 567.72 473.93 568.59 C 473.90 536.41 473.92 504.23 473.93 472.05 M 503.63 493.55 C 503.64 501.58 503.62 509.62 503.65 517.65 C 516.35 516.50 529.07 515.46 541.77 514.23 C 546.88 513.81 551.85 510.78 553.80 505.91 C 557.24 499.08 551.95 489.82 544.10 490.17 C 530.58 490.76 517.12 492.48 503.63 493.55 Z" />
    <path d=" M 346.00 483.46 C 368.67 481.55 391.31 479.19 414.00 477.56 C 430.56 476.31 446.61 489.37 448.20 506.00 C 451.03 526.37 434.91 546.56 414.81 549.51 C 401.82 551.20 388.72 551.93 375.70 553.24 C 375.66 561.29 375.70 569.33 375.67 577.38 C 365.77 578.26 355.88 579.16 345.98 580.03 C 345.97 547.84 345.93 515.65 346.00 483.46 M 375.69 504.97 C 375.67 513.00 375.67 521.04 375.69 529.07 C 385.99 528.13 396.30 527.38 406.58 526.27 C 413.79 525.64 419.91 518.53 418.57 511.23 C 417.86 505.75 412.41 501.83 407.00 502.29 C 396.54 502.88 386.13 504.12 375.69 504.97 Z" />
  </g>
</svg>
